:FULLY-SPECIFIED
:FORCE-ALL-JOINTS-BE-3DOF
:DEGREES
713
root 5.55778 21.5025 7.05844 -127.464 -88.3046 144.069
lfemur -34.22 -13.2798 9.44259
ltibia 67.4551 -0 0
lfoot 7.5452 -9.60285 -0.0326971
ltoes 29.5094 -0 0
rfemur -32.0042 -1.93508 -1.32799
rtibia 91.5344 -0 0
rfoot 21.2396 -20.8321 -0.028958
rtoes 40.7852 -0 0
lowerback 5.64616 -0.55625 -1.74967
upperback -1.4143 -0.959359 -1.61567
thorax -4.63204 -0.457108 -0.601169
lowerneck -6.94769 -6.39047 -2.27452
upperneck -0.262772 -8.49401 4.82022
head 1.42463 -4.18257 1.60261
lclavicle 0 0 0
lhumerus -0.772243 -19.9265 16.4132
lradius 46.6484 -0 0
lwrist 23.5122 0 0
lhand -22.3228 -3.3376 0.00209647
lfingers 0 0 0
lthumb 4.09704 26.6014 0.00191782
rclavicle 0 0 0
rhumerus -11.4481 -2.59991 -26.5328
rradius 99.3839 -0 0
rwrist -9.82838 0 0
rhand -27.027 -34.0667 0.0772807
rfingers 0 0 0
rthumb -0.445904 -64.0227 0.0732438
714
root 5.55506 21.5362 7.14442 -143.808 -86.9498 160.424
lfemur -33.509 -14.4131 8.6512
ltibia 64.1727 -0 0
lfoot 7.83272 -10.2676 -0.0169788
ltoes 29.2008 -0 0
rfemur -33.2004 -2.06702 -2.01599
rtibia 97.1801 -0 0
rfoot 21.4983 -21.4864 -0.0150373
rtoes 42.9099 -0 0
lowerback 5.73159 -0.462632 -1.71575
upperback -1.40658 -0.832544 -1.58499
thorax -4.67274 -0.394163 -0.598336
lowerneck -6.95282 -6.50419 -2.4094
upperneck -0.425514 -8.63083 4.84521
head 1.38506 -4.25396 1.62917
lclavicle 0 0 0
lhumerus -2.25348 -19.8997 16.8462
lradius 45.3846 -0 0
lwrist 22.8579 0 0
lhand -22.4948 -3.40893 0.00108877
lfingers 0 0 0
lthumb 3.93098 26.5339 0.000995996
rclavicle 0 0 0
rhumerus -10.7144 -1.8217 -27.2835
rradius 99.3619 -0 0
rwrist -10.0103 0 0
rhand -26.2941 -33.4507 0.0401262
rfingers 0 0 0
rthumb 0.26178 -63.4182 0.0380306
715
root 5.55312 21.5565 7.19857 -148.323 -85.9972 164.945
lfemur -33.0285 -15.1565 8.11823
ltibia 62.0046 -0 0
lfoot 8.02253 -10.7067 -0.00476716
ltoes 28.997 -0 0
rfemur -33.9897 -2.16202 -2.46891
rtibia 100.909 -0 0
rfoot 21.6691 -21.9186 -0.00422206
rtoes 44.3133 -0 0
lowerback 5.78805 -0.40082 -1.69327
upperback -1.40144 -0.748778 -1.56471
thorax -4.69963 -0.352583 -0.596489
lowerneck -6.95606 -6.57932 -2.49851
upperneck -0.533079 -8.72117 4.86194
head 1.35891 -4.30111 1.64675
lclavicle 0 0 0
lhumerus -3.23162 -19.8763 17.1317
lradius 44.5498 -0 0
lwrist 22.4257 0 0
lhand -22.6084 -3.45605 0.000305723
lfingers 0 0 0
lthumb 3.82129 26.4892 0.000279672
rclavicle 0 0 0
rhumerus -10.2356 -1.30244 -27.7737
rradius 99.3473 -0 0
rwrist -10.1304 0 0
rhand -25.8103 -33.0442 0.0112655
rfingers 0 0 0
rthumb 0.72902 -63.0191 0.0106772
716
root 5.46379 21.5177 8.00759 -149.464 -85.6489 166.089
lfemur -32.8528 -15.4238 7.92372
ltibia 61.2216 0 0
lfoot 8.09105 -10.8652 0
ltoes 28.9234 0 0
rfemur -34.2746 -2.19786 -2.63214
rtibia 102.256 0 0
rfoot 21.7308 -22.0746 0
rtoes 44.8201 0 0
lowerback 5.80845 -0.378505 -1.68514
upperback -1.39958 -0.71853 -1.55738
thorax -4.70934 -0.337568 -0.595827
lowerneck -6.9572 -6.60645 -2.53069
upperneck -0.571935 -8.75379 4.86803
head 1.34946 -4.31813 1.6531
lclavicle -1.33186e-14 1.63003e-14 0
lhumerus -3.58477 -19.8667 17.2347
lradius 44.2483 0 0
lwrist 22.2696 0 0
lhand -22.6494 -3.47306 0
lfingers 7.12502 0 0
lthumb 3.78168 26.4731 0
rclavicle -1.33186e-14 1.63003e-14 0
rhumerus -10.0638 -1.11393 -27.9496
rradius 99.342 0 0
rwrist -10.1738 0 0
rhand -25.6356 -32.8974 0
rfingers 7.12502 0 0
rthumb 0.897697 -62.875 0
717
root 5.43736 21.4955 8.22297 -154.104 -84.1939 171.013
lfemur -32.3769 -15.7932 7.66956
ltibia 58.7812 -0 0
lfoot 8.44149 -11.4197 -0.0262352
ltoes 28.8033 -0 0
rfemur -34.1046 -3.4547 -3.36678
rtibia 104.27 -0 0
rfoot 22.3138 -21.1837 0.0704347
rtoes 44.5633 -0 0
lowerback 5.52048 -0.14668 -1.57664
upperback -1.47066 -0.39466 -1.54991
thorax -4.61291 -0.179761 -0.663273
lowerneck -7.02454 -6.65481 -2.556
upperneck -0.659147 -8.81434 4.82813
head 1.33413 -4.35055 1.64132
lclavicle 0 0 0
lhumerus -5.13692 -20.1818 17.7368
lradius 44.3612 -0 0
lwrist 22.2068 0 0
lhand -22.5935 -3.50323 -0.000227336
lfingers 0 0 0
lthumb 3.8357 26.4419 -0.0002273
rclavicle 0 0 0
rhumerus -8.91182 -0.898649 -28.1138
rradius 99.2169 -0 0
rwrist -10.1371 0 0
rhand -25.7103 -32.7238 -0.00174705
rfingers 0 0 0
rthumb 0.825541 -62.7015 -0.00168628
718
root 5.40728 21.4565 8.43562 -157.658 -82.0717 174.975
lfemur -31.6909 -16.3185 7.29922
ltibia 55.2864 -0 0
lfoot 8.94375 -12.214 -0.0578972
ltoes 28.6313 -0 0
rfemur -33.8325 -5.25057 -4.42755
rtibia 107.155 -0 0
rfoot 23.1505 -19.9066 0.155491
rtoes 44.1955 -0 0
lowerback 5.10885 0.186258 -1.4233
upperback -1.57237 0.0691705 -1.5399
thorax -4.47513 0.0464318 -0.759399
lowerneck -7.12096 -6.72412 -2.59215
upperneck -0.783995 -8.90115 4.77115
head 1.31218 -4.39699 1.62447
lclavicle 0 0 0
lhumerus -7.37014 -20.6106 18.4732
lradius 44.5228 -0 0
lwrist 22.1169 0 0
lhand -22.5133 -3.54644 -0.000501595
lfingers 0 0 0
lthumb 3.91306 26.3971 -0.000501515
rclavicle 0 0 0
rhumerus -7.26325 -0.584698 -28.3413
rradius 99.0378 -0 0
rwrist -10.0846 0 0
rhand -25.8173 -32.4752 -0.00385477
rfingers 0 0 0
rthumb 0.722198 -62.453 -0.00372067
719
root 5.37482 21.4045 8.64178 -159.941 -79.4484 177.759
lfemur -30.8438 -16.9558 6.83557
ltibia 51.0082 -0 0
lfoot 9.55911 -13.1866 -0.0871709
ltoes 28.4207 -0 0
rfemur -33.4526 -7.4416 -5.74285
rtibia 110.685 -0 0
rfoot 24.1769 -18.3419 0.234183
rtoes 43.7453 -0 0
lowerback 4.60614 0.595306 -1.23884
upperback -1.69678 0.636985 -1.52878
thorax -4.30699 0.323636 -0.876331
lowerneck -7.23895 -6.80904 -2.63625
upperneck -0.936747 -9.00759 4.70163
head 1.28532 -4.45385 1.60387
lclavicle 0 0 0
lhumerus -10.12 -21.0982 19.4008
lradius 44.7207 -0 0
lwrist 22.0069 0 0
lhand -22.4153 -3.59934 -0.000755068
lfingers 0 0 0
lthumb 4.00777 26.3423 -0.000754948
rclavicle 0 0 0
rhumerus -5.24697 -0.191678 -28.6073
rradius 98.8185 -0 0
rwrist -10.0203 0 0
rhand -25.9483 -32.1708 -0.00580279
rfingers 0 0 0
rthumb 0.595682 -62.1489 -0.00560092
720
root 5.34131 21.3438 8.83771 -161.327 -76.4969 179.708
lfemur -29.8853 -17.6614 6.30286
ltibia 46.2179 -0 0
lfoot 10.2486 -14.276 -0.107545
ltoes 28.1849 -0 0
rfemur -32.9641 -9.88381 -7.24222
rtibia 114.639 -0 0
rfoot 25.3283 -16.5884 0.28898
rtoes 43.2412 -0 0
lowerback 4.04476 1.05522 -1.03654
upperback -1.83597 1.27281 -1.51779
thorax -4.11938 0.634431 -1.0063
lowerneck -7.371 -6.90423 -2.68543
upperneck -1.10769 -9.12699 4.62411
head 1.25528 -4.51752 1.58083
lclavicle 0 0 0
lhumerus -13.2191 -21.5939 20.4714
lradius 44.9422 -0 0
lwrist 21.8836 0 0
lhand -22.3054 -3.65857 -0.000931429
lfingers 0 0 0
lthumb 4.11381 26.281 -0.000931281
rclavicle 0 0 0
rhumerus -2.99149 0.259183 -28.8885
rradius 98.573 -0 0
rwrist -9.94825 0 0
rhand -26.095 -31.83 -0.00715821
rfingers 0 0 0
rthumb 0.45401 -61.8083 -0.00690919
721
root 5.30805 21.2781 9.01967 -162.144 -73.3896 -178.879
lfemur -28.8672 -18.3932 5.72774
ltibia 41.1865 -0 0
lfoot 10.9731 -15.4204 -0.114824
ltoes 27.9373 -0 0
rfemur -32.3763 -12.4342 -8.85354
rtibia 118.792 -0 0
rfoot 26.5389 -14.746 0.308563
rtoes 42.7117 -0 0
lowerback 3.45678 1.54038 -0.828887
upperback -1.98209 1.94064 -1.5079
thorax -3.92308 0.96132 -1.14173
lowerneck -7.50965 -7.00434 -2.73685
upperneck -1.28711 -9.25264 4.54305
head 1.22374 -4.58441 1.55666
lclavicle 0 0 0
lhumerus -16.4952 -22.0555 21.629
lradius 45.175 -0 0
lwrist 21.7542 0 0
lhand -22.1901 -3.72078 -0.000994424
lfingers 0 0 0
lthumb 4.22519 26.2166 -0.000994265
rclavicle 0 0 0
rhumerus -0.624771 0.744253 -29.1646
rradius 98.3152 -0 0
rwrist -9.87261 0 0
rhand -26.249 -31.472 -0.00764237
rfingers 0 0 0
rthumb 0.305204 -61.4506 -0.0073765
722
root 5.27633 21.2116 9.18391 -162.607 -70.297 -177.82
lfemur -27.8431 -19.1108 5.14005
ltibia 36.1853 -0 0
lfoot 11.6933 -16.558 -0.107718
ltoes 27.6911 -0 0
rfemur -31.7124 -14.952 -10.4993
rtibia 122.919 -0 0
rfoot 27.7422 -12.9145 0.289445
rtoes 42.1854 -0 0
lowerback 2.8739 2.02472 -0.627372
upperback -2.12728 2.6045 -1.49976
thorax -3.7287 1.28671 -1.27524
lowerneck -7.6474 -7.10397 -2.78774
upperneck -1.46534 -9.37779 4.46284
head 1.19242 -4.65092 1.53267
lclavicle 0 0 0
lhumerus -19.771 -22.4526 22.8097
lradius 45.4063 -0 0
lwrist 21.6255 0 0
lhand -22.0754 -3.78262 -0.000932924
lfingers 0 0 0
lthumb 4.3359 26.1526 -0.000932776
rclavicle 0 0 0
rhumerus 1.72578 1.2373 -29.419
rradius 98.0589 -0 0
rwrist -9.79743 0 0
rhand -26.4022 -31.1162 -0.00716971
rfingers 0 0 0
rthumb 0.157289 -61.095 -0.00692028
723
root 5.24745 21.1482 9.32668 -162.852 -67.389 -177.01
lfemur -26.8696 -19.7759 4.57308
ltibia 31.4853 -0 0
lfoot 12.3698 -17.6268 -0.0880112
ltoes 27.4598 -0 0
rfemur -31.0121 -17.3 -12.0927
rtibia 126.798 -0 0
rfoot 28.8719 -11.1941 0.236442
rtoes 41.6908 -0 0
lowerback 2.32753 2.48173 -0.442439
upperback -2.26372 3.22839 -1.49364
thorax -3.54669 1.5929 -1.39973
lowerneck -7.7768 -7.19771 -2.83535
upperneck -1.63274 -9.49562 4.3878
head 1.16301 -4.71343 1.51016
lclavicle 0 0 0
lhumerus -22.8649 -22.7681 23.9429
lradius 45.6236 -0 0
lwrist 21.5046 0 0
lhand -21.9677 -3.84074 -0.000762343
lfingers 0 0 0
lthumb 4.43994 26.0924 -0.000762222
rclavicle 0 0 0
rhumerus 3.9332 1.70979 -29.6394
rradius 97.818 -0 0
rwrist -9.72677 0 0
rhand -26.5461 -30.7818 -0.0058587
rfingers 0 0 0
rthumb 0.01829 -60.7608 -0.00565489
724
root 5.22273 21.0919 9.44425 -162.965 -64.8344 -176.395
lfemur -26.0054 -20.3524 4.0633
ltibia 27.3578 -0 0
lfoot 12.9635 -18.5653 -0.0603006
ltoes 27.2567 -0 0
rfemur -30.3323 -19.3457 -13.5349
rtibia 130.205 -0 0
rfoot 29.8623 -9.68439 0.16195
rtoes 41.2565 -0 0
lowerback 1.84875 2.88451 -0.283578
upperback -2.38356 3.7763 -1.48949
thorax -3.38738 1.86213 -1.50826
lowerneck -7.8904 -7.28012 -2.877
upperneck -1.77967 -9.59927 4.32216
head 1.1372 -4.76833 1.49042
lclavicle 0 0 0
lhumerus -25.5925 -22.9982 24.954
lradius 45.8146 -0 0
lwrist 21.3984 0 0
lhand -21.8731 -3.89177 -0.000522409
lfingers 0 0 0
lthumb 4.53131 26.0395 -0.000522326
rclavicle 0 0 0
rhumerus 5.87076 2.13147 -29.818
rradius 97.6064 -0 0
rwrist -9.66472 0 0
rhand -26.6725 -30.4882 -0.00401473
rfingers 0 0 0
rthumb -0.103772 -60.4674 -0.00387506
725
root 5.20345 21.0468 9.53286 -163.005 -62.8016 -175.953
lfemur -25.3117 -20.8059 3.64974
ltibia 24.0738 -0 0
lfoot 13.4355 -19.3117 -0.0313107
ltoes 27.095 -0 0
rfemur -29.7459 -20.9612 -14.7143
rtibia 132.915 -0 0
rfoot 30.6487 -8.48428 0.0840657
rtoes 40.9109 -0 0
lowerback 1.46849 3.20591 -0.159554
upperback -2.47894 4.21224 -1.487
thorax -3.26097 2.07655 -1.5941
lowerneck -7.98075 -7.34574 -2.91002
upperneck -1.89651 -9.68187 4.27012
head 1.11668 -4.81202 1.47473
lclavicle 0 0 0
lhumerus -27.7687 -23.1493 25.7674
lradius 45.9664 -0 0
lwrist 21.314 0 0
lhand -21.7978 -3.93237 -0.000271308
lfingers 0 0 0
lthumb 4.604 25.9975 -0.000271265
rclavicle 0 0 0
rhumerus 7.41178 2.47113 -29.9498
rradius 97.4381 -0 0
rwrist -9.61536 0 0
rhand -26.773 -30.2545 -0.00208498
rfingers 0 0 0
rthumb -0.200879 -60.2339 -0.00201245
